rec1_008.mot
nRows=10
nColumns=19

name rec1_008.mot
datacolumns 19
datarows 10
range 0.0000000000 0.0179999426
endheader
time	ground_force_vx	ground_force_vy	ground_force_vz	ground_force_px	ground_force_py	ground_force_pz	1_ground_force_vx	1_ground_force_vy	1_ground_force_vz	1_ground_force_px	1_ground_force_py	1_ground_force_pz	ground_torque_x	ground_torque_y	ground_torque_z	1_ground_torque_x	1_ground_torque_y	1_ground_torque_z	
        0.0000000000	        1.2864999380	      372.6762521189	      -42.5113761238	       -0.7000000000	       -0.0180000000	        0.5600000000	        8.5037863142	      358.1170950800	       39.5377594972	       -0.7000000000	       -0.0180000000	       -0.5600000000	      146.1753263943	       23.0236015778	      363.5508138958	     -143.4009461173	      -35.3428467413	      336.1099486796	
        0.0019999359	        1.3041788067	      372.7441967849	      -42.4947235945	       -0.7000000000	       -0.0180000000	        0.5600000000	        8.5515084463	      358.2938488044	       39.5507796275	       -0.7000000000	       -0.0180000000	       -0.5600000000	      146.1943934654	       23.0687492833	      363.6236171467	     -143.4742827934	      -35.3393420568	      336.2785012535	
        0.0040001117	        1.3171864257	      372.8081053594	      -42.4759823393	       -0.7000000000	       -0.0180000000	        0.5600000000	        8.5963965036	      358.4705298549	       39.5643423068	       -0.7000000000	       -0.0180000000	       -0.5600000000	      146.2117203768	       23.1231024115	      363.6944730717	     -143.5486673804	      -35.3367346263	      336.4480939055	
        0.0059998477	        1.3249451896	      372.8668337024	      -42.4558197067	       -0.7000000000	       -0.0180000000	        0.5600000000	        8.6379195912	      358.6454557219	       39.5786555407	       -0.7000000000	       -0.0180000000	       -0.5600000000	      146.2270302687	       23.1851147935	      363.7623729183	     -143.6233442296	      -35.3353456709	      336.6170447279	
        0.0080001035	        1.3268443408	      372.9192560132	      -42.4349754638	       -0.7000000000	       -0.0180000000	        0.5600000000	        8.6755307455	      358.8168991691	       39.5939572046	       -0.7000000000	       -0.0180000000	       -0.5600000000	      146.2400143199	       23.2527038693	      363.8261388397	     -143.6975211866	      -35.3354830278	      336.7836463283	
        0.0099998793	        1.3222946308	      372.9643157649	      -42.4142258780	       -0.7000000000	       -0.0180000000	        0.5600000000	        8.7086087092	      358.9830679965	       39.6104162477	       -0.7000000000	       -0.0180000000	       -0.5600000000	      146.2503412544	       23.3233826214	      363.8845335167	     -143.7703759655	      -35.3374023548	      336.9461517951	
        0.0120002951	        1.3107842309	      373.0010753202	      -42.3943399438	       -0.7000000000	       -0.0180000000	        0.5600000000	        8.7364538434	      359.1421476101	       39.6280418680	       -0.7000000000	       -0.0180000000	       -0.5600000000	      146.2576667055	       23.3951504402	      363.9363535738	     -143.8410608558	      -35.3412769421	      337.1028219850	
        0.0139999109	        1.2919185275	      373.0286988143	      -42.3760549750	       -0.7000000000	       -0.0180000000	        0.5600000000	        8.7583334382	      359.2923821522	       39.6466666920	       -0.7000000000	       -0.0180000000	       -0.5600000000	      146.2616368374	       23.4671325157	      363.9804202602	     -143.9087140203	      -35.3471938614	      337.2520031106	
        0.0160001668	        1.2654311533	      373.0463572715	      -42.3600906141	       -0.7000000000	       -0.0180000000	        0.5600000000	        8.7735466892	      359.4321253609	       39.6660028597	       -0.7000000000	       -0.0180000000	       -0.5600000000	      146.2618886150	       23.5389085093	      364.0154786361	     -143.9724687581	      -35.3551766950	      337.3921509879	
        0.0179999426	        1.2311636758	      373.0531392132	      -42.3471655180	       -0.7000000000	       -0.0180000000	        0.5600000000	        8.7814742985	      359.5598058328	       39.6857156613	       -0.7000000000	       -0.0180000000	       -0.5600000000	      146.2580469597	       23.6096558265	      364.0401175879	     -144.0314463989	      -35.3652179268	      337.5217658659	
